Patient4_TMGait_0pt4_03_left_32_GRF.mot
version=1
nRows=65
nColumns=19
inDegrees=no
endheader
time	F1x	F1y	F1z	M1x	M1y	M1z	F2x	F2y	F2z	M2x	M2y	M2z	EC1x	EC1y	EC1z	EC2x	EC2y	EC2z
42.21	-8.2238	15.9348	2.5496	-4.5752	-3.0883	16.0065	-23.8	722.5578	-65.3572	282.5622	81.3695	794.361	-0.0592	0.0182	-0.0073	-0.0462	0.0165	0.9585
42.2235	-5.4747	11.0948	1.754	-3.2249	-2.1125	11.2408	-20.7139	722.0241	-64.8336	281.6956	79.1261	792.3371	-0.0592	0.0182	-0.0073	-0.0462	0.0165	0.9585
42.237	-3.1551	7.0386	1.0743	-2.0963	-1.2841	7.2486	-17.5184	722.6552	-64.0955	281.3351	76.5991	790.855	-0.0592	0.0182	-0.0073	-0.0462	0.0165	0.9585
42.2505	-1.3969	3.9875	0.55193	-1.251	-0.65241	4.2509	-14.358	725.1577	-63.2159	281.8137	73.9498	790.7027	-0.0592	0.0182	-0.0073	-0.0462	0.0165	0.9585
42.264	-0.19788	1.9089	0.18704	-0.67877	-0.2214	2.2138	-11.3062	729.9634	-62.2759	283.3284	71.3103	792.4335	-0.0592	0.0182	-0.0073	-0.0462	0.0165	0.9585
42.2775	0.51315	0.64885	-0.040533	-0.33399	0.028607	0.98539	-8.3933	737.0645	-61.3374	285.8802	68.7676	796.1525	-0.0592	0.0182	-0.0073	-0.0462	0.0165	0.9585
42.291	0.84855	-0.0001631	-0.15718	-0.15446	0.13486	0.35213	-5.6402	745.9777	-60.436	289.2683	66.3665	801.4627	-0.0592	0.0182	-0.0073	-0.0462	0.0165	0.9585
42.3045	0.91379	-0.26275	-0.18842	-0.074384	0.13178	0.086582	-3.0357	755.8375	-59.575	293.1345	64.0977	807.5498	-0.0592	0.0182	-0.0073	-0.0462	0.0165	0.9585
42.318	0.80665	-0.36462	-0.15714	-0.031519	0.051319	-0.049586	-0.5433	765.5735	-58.749	297.0362	61.9235	813.3753	-0.0592	0.0182	-0.0073	-0.0462	0.0165	0.9585
42.3315	0.59969	-0.49563	-0.077346	0.028715	-0.086226	-0.25059	1.8859	774.0793	-57.9478	300.515	59.7944	817.8521	-0.0592	0.0182	-0.0073	-0.0462	0.0165	0.9585
42.345	0.34271	-0.81888	0.030009	0.15412	-0.25749	-0.68276	4.3026	780.3859	-57.1776	303.1655	57.6892	820.0269	-0.0592	0.0182	-0.0073	-0.0462	0.0165	0.9585
42.3585	0.083528	-1.4618	0.15194	0.3833	-0.44377	-1.487	6.7449	783.8139	-56.4595	304.6952	55.6144	819.2543	-0.0592	0.0182	-0.0073	-0.0462	0.0165	0.9585
42.372	-0.14125	-2.4914	0.26534	0.73753	-0.61199	-2.7369	9.2148	784.0251	-55.8294	304.945	53.6075	815.2574	-0.0592	0.0182	-0.0073	-0.0462	0.0165	0.9585
42.3855	-0.27445	-3.9039	0.35125	1.2156	-0.72125	-4.4342	11.6679	781.0547	-55.3299	303.9025	51.7323	808.1471	-0.0592	0.0182	-0.0073	-0.0462	0.0165	0.9585
42.399	-0.2426	-5.5823	0.3709	1.7787	-0.70248	-6.4458	14.0468	775.3251	-55.0184	301.7107	50.0787	798.4234	-0.0592	0.0182	-0.0073	-0.0462	0.0165	0.9585
42.4125	0.049061	-7.2514	0.28038	2.3361	-0.471	-8.442	16.3008	767.5875	-54.9576	298.6491	48.7416	786.9073	-0.0592	0.0182	-0.0073	-0.0462	0.0165	0.9585
42.426	0.7236	-8.4068	0.015326	2.7214	0.085832	-9.8257	18.3951	758.7724	-55.2092	295.0784	47.804	774.588	-0.0592	0.0182	-0.0073	-0.0462	0.0165	0.9585
42.4395	1.9065	-8.2556	-0.4922	2.6727	1.0888	-9.6551	20.3315	749.8038	-55.8141	291.3647	47.3124	762.426	-0.0592	0.0182	-0.0073	-0.0462	0.0165	0.9585
42.453	3.7165	-5.6876	-1.3106	1.8245	2.6556	-6.6177	22.1208	741.3843	-56.7691	287.7931	47.2593	751.1361	-0.0592	0.0182	-0.0073	-0.0462	0.0165	0.9585
42.4665	6.2056	0.73256	-2.4891	-0.29176	4.8577	0.99276	23.7629	733.7927	-58.0144	284.4877	47.5823	740.9905	-0.0592	0.0182	-0.0073	-0.0462	0.0165	0.9585
42.48	9.3128	12.6497	-4.0278	-4.2108	7.6706	15.1271	25.2475	726.7716	-59.4226	281.3635	48.1606	731.7284	-0.0592	0.0182	-0.0073	-0.0462	0.0165	0.9585
42.4935	12.7546	31.6627	-5.8416	-10.4541	10.8993	37.6826	26.5237	719.5048	-60.8002	278.1155	48.8249	722.5473	-0.0592	0.0182	-0.0073	-0.0462	0.0165	0.9585
42.507	15.911	58.8845	-7.6982	-19.3818	14.0623	69.977	27.4773	710.7009	-61.9002	274.2545	49.377	712.1924	-0.0592	0.0182	-0.0073	-0.0462	0.0165	0.9585
42.5205	17.7263	94.2324	-9.159	-30.9603	16.2885	111.9018	27.9353	698.8363	-62.444	269.1977	49.6143	699.1965	-0.0592	0.0182	-0.0073	-0.0462	0.0165	0.9585
42.534	16.8315	135.6645	-9.5379	-44.4996	16.321	161.0547	27.7217	682.4785	-62.1723	262.3985	49.3575	682.1767	-0.0592	0.0182	-0.0073	-0.0462	0.0165	0.9585
42.5475	12.587	179.0239	-7.9496	-58.5902	12.9095	212.5301	26.7208	660.6762	-60.916	253.5029	48.4942	660.2042	-0.0592	0.0182	-0.0073	-0.0462	0.0165	0.9585
42.561	6.2286	219.6966	-3.9509	-71.6879	6.0284	260.7934	24.9697	633.3403	-58.6729	242.5002	47.0153	633.149	-0.0592	0.0182	-0.0073	-0.0462	0.0165	0.9585
42.5745	-0.52283	255.5494	1.5753	-83.1227	-2.7269	303.0692	22.7154	601.4186	-55.6417	229.7793	45.0184	601.83	-0.0592	0.0182	-0.0073	-0.0462	0.0165	0.9585
42.588	-6.5754	287.2273	8.1085	-93.1224	-12.3323	339.9592	20.3602	566.4321	-52.1497	215.951	42.6563	567.585	-0.0592	0.0182	-0.0073	-0.0462	0.0165	0.9585
42.6015	-11.4391	316.5372	14.7737	-102.3187	-21.6396	373.547	18.3013	529.8038	-48.4222	201.5889	39.9812	531.6604	-0.0592	0.0182	-0.0073	-0.0462	0.0165	0.9585
42.615	-15.0941	345.1564	21.1824	-111.2864	-30.1566	405.8746	16.8014	492.3721	-44.527	187.041	36.9468	494.7734	-0.0592	0.0182	-0.0073	-0.0462	0.0165	0.9585
42.6285	-17.6779	374.1565	26.7245	-120.4096	-37.2658	438.1973	15.9056	454.4265	-40.3846	172.4286	33.4523	457.1792	-0.0592	0.0182	-0.0073	-0.0462	0.0165	0.9585
42.642	-19.3484	403.9204	31.2759	-129.819	-42.8608	471.0236	15.4932	415.8653	-35.9179	157.7092	29.4604	418.7895	-0.0592	0.0182	-0.0073	-0.0462	0.0165	0.9585
42.6555	-20.1807	434.4057	34.7193	-139.4987	-46.8702	504.3242	15.3173	376.4836	-31.1256	142.7855	25.0449	379.4428	-0.0592	0.0182	-0.0073	-0.0462	0.0165	0.9585
42.669	-20.2726	465.441	37.3991	-149.3657	-49.7109	537.9941	15.1049	336.2032	-26.1638	127.5921	20.4412	339.1079	-0.0592	0.0182	-0.0073	-0.0462	0.0165	0.9585
42.6825	-19.6887	496.84	39.5799	-159.3355	-51.7321	571.8295	14.5968	295.2373	-21.2587	112.1694	15.9512	298.027	-0.0592	0.0182	-0.0073	-0.0462	0.0165	0.9585
42.696	-18.575	528.4389	41.701	-169.3304	-53.4721	605.6698	13.5735	254.1572	-16.6767	96.6969	11.9035	256.8066	-0.0592	0.0182	-0.0073	-0.0462	0.0165	0.9585
42.7095	-17.1675	560.213	43.9871	-179.3323	-55.2724	639.4967	11.9504	213.8834	-12.6147	81.4994	8.5279	216.388	-0.0592	0.0182	-0.0073	-0.0462	0.0165	0.9585
42.723	-15.662	592.3647	46.6314	-189.4057	-57.4049	673.529	9.7491	175.5925	-9.1915	67.0117	5.9448	177.9658	-0.0592	0.0182	-0.0073	-0.0462	0.0165	0.9585
42.7365	-14.1999	625.1659	49.5599	-199.6466	-59.843	708.0648	7.1398	140.4763	-6.4164	53.6891	4.1176	142.7197	-0.0592	0.0182	-0.0073	-0.0462	0.0165	0.9585
42.75	-12.835	658.4893	52.6878	-210.0233	-62.5131	742.9481	4.3945	109.503	-4.2531	41.9078	2.9276	111.594	-0.0592	0.0182	-0.0073	-0.0462	0.0165	0.9585
42.7635	-11.6321	691.6104	55.8821	-220.3043	-65.2958	777.3835	1.7726	83.212	-2.6249	31.8816	2.2152	85.117	-0.0592	0.0182	-0.0073	-0.0462	0.0165	0.9585
42.777	-10.6192	723.2408	59.0906	-230.0735	-68.1372	809.9622	-0.52568	61.6248	-1.4496	23.6319	1.8378	63.2999	-0.0592	0.0182	-0.0073	-0.0462	0.0165	0.9585
42.7905	-9.7638	751.8015	62.2419	-238.8233	-70.9519	838.9632	-2.4	44.3998	-0.63467	17.0376	1.6747	45.8237	-0.0592	0.0182	-0.0073	-0.0462	0.0165	0.9585
42.804	-9.0229	775.7403	65.2022	-246.0639	-73.5801	862.7208	-3.7586	30.9702	-0.10651	11.8912	1.6223	32.1385	-0.0592	0.0182	-0.0073	-0.0462	0.0165	0.9585
42.8175	-8.3081	793.8325	67.8236	-251.4173	-75.8371	879.9276	-4.5484	20.7046	0.19433	7.9571	1.5963	21.6356	-0.0592	0.0182	-0.0073	-0.0462	0.0165	0.9585
42.831	-7.5738	805.3693	69.9462	-254.6728	-77.5354	889.8571	-4.7522	13.0128	0.31525	5.0113	1.535	13.7388	-0.0592	0.0182	-0.0073	-0.0462	0.0165	0.9585
42.8445	-6.7881	810.2531	71.498	-255.8108	-78.5851	892.4569	-4.3829	7.4107	0.29846	2.8684	1.4012	7.9584	-0.0592	0.0182	-0.0073	-0.0462	0.0165	0.9585
42.858	-5.9571	809.0018	72.4239	-255.0094	-78.93	888.3486	-3.6195	3.5767	0.18993	1.4014	1.2168	3.9813	-0.0592	0.0182	-0.0073	-0.0462	0.0165	0.9585
42.8715	-5.1158	802.6499	72.7653	-252.6049	-78.6257	878.7147	-2.7291	1.2153	0.055133	0.49707	1.0188	1.5072	-0.0592	0.0182	-0.0073	-0.0462	0.0165	0.9585
42.885	-4.2606	792.5757	72.5422	-249.0465	-77.6984	865.0701	-1.8979	-0.013178	-0.071107	0.024677	0.84211	0.1991	-0.0592	0.0182	-0.0073	-0.0462	0.0165	0.9585
42.8985	-3.3846	780.3475	71.8762	-244.8372	-76.2723	849.1253	-1.2115	-0.44012	-0.16824	-0.14437	0.69804	-0.26945	-0.0592	0.0182	-0.0073	-0.0462	0.0165	0.9585
42.912	-2.4336	767.5183	70.8586	-240.476	-74.4408	832.5262	-0.69043	-0.3715	-0.23319	-0.12408	0.58895	-0.21066	-0.0592	0.0182	-0.0073	-0.0462	0.0165	0.9585
42.9255	-1.3652	755.4582	69.6713	-236.3973	-72.3855	816.7203	-0.34306	-0.037055	-0.26536	0.00014541	0.51067	0.14987	-0.0592	0.0182	-0.0073	-0.0462	0.0165	0.9585
42.939	-0.14439	745.2323	68.407	-232.9407	-70.2049	802.8144	-0.12572	0.40537	-0.27528	0.16849	0.45562	0.64375	-0.0592	0.0182	-0.0073	-0.0462	0.0165	0.9585
42.9525	1.247	737.5253	67.1863	-230.323	-68.0177	791.512	-0.017908	0.8592	-0.27327	0.34292	0.42261	1.1666	-0.0592	0.0182	-0.0073	-0.0462	0.0165	0.9585
42.966	2.8353	732.6689	66.0357	-228.6482	-65.8472	783.1314	-0.001837	1.2562	-0.2697	0.49743	0.4133	1.6355	-0.0592	0.0182	-0.0073	-0.0462	0.0165	0.9585
42.9795	4.6334	730.6542	65.0095	-227.9069	-63.7423	777.6366	-0.048657	1.5553	-0.27345	0.61461	0.42607	1.9926	-0.0592	0.0182	-0.0073	-0.0462	0.0165	0.9585
42.993	6.6354	731.2175	64.1008	-228.0033	-61.7014	774.7307	-0.14326	1.7303	-0.28654	0.68083	0.45967	2.2034	-0.0592	0.0182	-0.0073	-0.0462	0.0165	0.9585
43.0065	8.832	733.9384	63.3415	-228.786	-59.7627	773.9596	-0.27191	1.7215	-0.31229	0.6744	0.51565	2.1964	-0.0592	0.0182	-0.0073	-0.0462	0.0165	0.9585
43.02	11.21	738.3151	62.7326	-230.0735	-57.9309	774.7963	-0.44114	1.4783	-0.35158	0.57514	0.59886	1.9201	-0.0592	0.0182	-0.0073	-0.0462	0.0165	0.9585
43.0335	13.7494	743.7948	62.3017	-231.6656	-56.2389	776.6981	-0.63123	0.93367	-0.41228	0.35601	0.71584	1.2864	-0.0592	0.0182	-0.0073	-0.0462	0.0165	0.9585
43.047	16.4209	749.8174	62.0595	-233.3646	-54.7068	779.1315	-0.8296	0.016628	-0.4875	-0.011631	0.85911	0.20388	-0.0592	0.0182	-0.0073	-0.0462	0.0165	0.9585
43.0605	19.2128	755.8506	62.0186	-234.9857	-53.3553	781.5979	-1.0083	-1.3287	-0.56539	-0.55189	1.0069	-1.399	-0.0592	0.0182	-0.0073	-0.0462	0.0165	0.9585
43.074	22.0823	761.3924	62.1675	-236.3607	-52.1887	783.6416	-1.0912	-3.1013	-0.62406	-1.2657	1.103	-3.5292	-0.0592	0.0182	-0.0073	-0.0462	0.0165	0.9585
